<?xml version="1.0" standalone="no"?>
<!DOCTYPE svg PUBLIC "-//W3C//DTD SVG 20010904//EN"
 "http://www.w3.org/TR/2001/REC-SVG-20010904/DTD/svg10.dtd">
<svg version="1.0" xmlns="http://www.w3.org/2000/svg"
 width="204.000000pt" height="146.000000pt" viewBox="0 0 204.000000 146.000000"
 preserveAspectRatio="xMidYMid meet">

<g transform="translate(0.000000,146.000000) scale(0.100000,-0.100000)"
fill="#000000" stroke="none">
<path d="M1111 1348 c6 -22 5 -34 -3 -39 -10 -6 50 -39 72 -39 8 0 46 68 40
72 -7 5 -104 38 -112 38 -4 0 -2 -14 3 -32z"/>
<path d="M642 1174 c-95 -16 -202 -55 -293 -107 -63 -36 -109 -70 -109 -81 0
-4 87 1 137 8 7 1 36 21 65 45 68 55 160 105 223 121 28 7 54 17 60 21 5 5 7
9 5 8 -3 -1 -42 -7 -88 -15z"/>
<path d="M790 1138 c-50 -48 -41 -58 27 -31 27 10 50 18 53 19 3 0 19 6 35 13
27 12 28 14 10 21 -64 23 -81 20 -125 -22z"/>
<path d="M607 1023 c-4 -3 -7 -24 -7 -45 0 -31 3 -38 20 -38 19 0 20 -7 20
-135 0 -128 -1 -135 -20 -135 -17 0 -20 -7 -20 -45 l0 -45 59 0 c73 0 127 -10
110 -20 -8 -5 2 -17 29 -35 36 -23 55 -28 133 -33 l90 -5 39 38 c41 40 42 41
227 49 50 2 96 7 102 11 6 3 11 24 11 46 0 35 -2 39 -26 39 -25 0 -26 2 -20
38 3 20 6 62 7 92 l1 55 44 -94 c40 -84 47 -93 67 -87 12 3 25 6 28 6 4 0 23
42 44 93 20 50 41 96 46 101 5 6 9 -32 9 -97 l0 -107 -26 0 c-23 0 -25 -3 -22
-42 l3 -43 98 -3 97 -3 0 46 c0 33 -4 45 -15 45 -13 0 -15 22 -15 135 0 113 2
135 15 135 11 0 15 12 15 45 l0 45 -98 0 c-112 0 -101 9 -144 -110 -27 -72
-35 -80 -48 -44 -6 16 -22 57 -37 92 l-26 62 -101 0 -101 0 3 -45 c3 -30 9
-45 18 -45 11 0 14 -17 14 -70 0 -69 0 -70 -19 -51 -10 10 -33 22 -50 26 -17
4 -31 10 -32 13 0 4 -2 22 -5 40 -3 28 0 35 16 39 16 4 20 14 20 49 l0 44
-100 0 c-114 0 -97 13 -145 -115 -12 -32 -27 -61 -32 -62 -5 -2 -15 14 -22 34
-7 21 -22 62 -34 91 l-21 52 -96 0 c-53 0 -100 -3 -103 -7z m209 -261 c37 -91
38 -93 68 -90 29 3 33 9 68 97 21 52 42 99 48 105 7 7 10 -26 10 -97 l0 -107
-25 0 c-23 0 -25 -4 -25 -45 0 -40 -2 -45 -22 -45 -13 0 -35 6 -50 14 -23 12
-29 12 -39 0 -18 -21 -39 2 -39 42 0 30 -3 34 -25 34 l-25 0 0 108 c0 122 2
121 56 -16z m364 58 c25 -13 27 -65 4 -78 -15 -8 -14 -13 11 -46 26 -35 29
-36 46 -20 20 18 25 44 9 44 -5 0 -10 7 -10 15 0 10 11 15 35 15 19 0 35 -5
35 -11 0 -6 -14 -30 -31 -55 -33 -48 -31 -64 6 -64 18 0 23 -4 19 -15 -7 -18
-65 -20 -81 -4 -8 8 -17 8 -31 0 -38 -20 -100 -13 -127 14 -33 32 -31 60 5 86
28 22 29 23 13 49 -10 18 -13 34 -8 46 5 11 8 21 7 24 -1 10 79 10 98 0z
m-127 -247 c-13 -2 -35 -2 -50 0 -16 2 -5 4 22 4 28 0 40 -2 28 -4z"/>
<path d="M1112 783 c4 -35 43 -45 53 -14 9 28 -1 41 -31 41 -22 0 -25 -4 -22
-27z m38 -4 c0 -5 -4 -9 -10 -9 -5 0 -10 7 -10 16 0 8 5 12 10 9 6 -3 10 -10
10 -16z"/>
<path d="M1112 688 c-34 -34 6 -90 48 -68 26 14 25 21 -8 53 -22 21 -31 24
-40 15z"/>
<path d="M1306 448 c2 -49 4 -53 28 -56 21 -3 26 1 26 17 0 14 -5 19 -15 15
-18 -7 -20 12 -2 20 10 5 10 7 0 12 -18 8 -16 27 2 20 9 -3 15 0 15 9 0 10
-10 15 -28 15 -27 0 -27 -1 -26 -52z"/>
<path d="M1370 461 c0 -6 5 -13 10 -16 6 -3 7 -18 3 -33 -6 -24 -5 -26 10 -13
11 9 17 10 17 2 0 -6 4 -11 9 -11 5 0 8 18 7 40 -1 39 -10 52 -19 28 -4 -10
-6 -10 -6 0 -1 14 -31 17 -31 3z"/>
<path d="M1447 413 c1 -41 5 -58 15 -58 8 0 12 9 10 24 -2 13 1 21 6 17 15 -9
34 20 30 46 -2 17 -10 24 -33 26 l-30 3 2 -58z m43 17 c0 -11 -4 -20 -10 -20
-5 0 -10 9 -10 20 0 11 5 20 10 20 6 0 10 -9 10 -20z"/>
<path d="M1525 429 c0 -30 3 -39 15 -36 8 1 14 10 12 19 -1 9 2 19 8 23 18 11
11 31 -13 33 -20 1 -22 -3 -22 -39z"/>
<path d="M1587 464 c-4 -4 -7 -20 -7 -36 0 -31 24 -48 43 -29 8 8 7 11 -6 11
-9 0 -17 5 -17 10 0 6 7 10 16 10 9 0 14 7 12 17 -3 19 -29 29 -41 17z"/>
<path d="M1650 450 c0 -11 7 -23 15 -26 8 -4 15 -11 15 -16 0 -6 -7 -8 -15 -4
-8 3 -15 1 -15 -4 0 -16 37 -11 44 5 3 8 -5 24 -17 36 -17 17 -18 21 -4 16 9
-4 17 -2 17 3 0 6 -9 10 -20 10 -13 0 -20 -7 -20 -20z"/>
<path d="M1710 450 c0 -11 7 -23 15 -26 8 -4 15 -11 15 -16 0 -6 -7 -8 -15 -4
-8 3 -15 1 -15 -5 0 -6 8 -9 18 -7 22 4 30 48 8 48 -9 0 -16 5 -16 11 0 6 7 9
15 5 8 -3 15 -1 15 4 0 6 -9 10 -20 10 -13 0 -20 -7 -20 -20z"/>
<path d="M600 210 c0 -5 4 -10 9 -10 5 0 12 -11 15 -25 4 -14 11 -25 17 -25 7
0 8 7 4 18 -5 9 -8 25 -9 35 0 18 -36 25 -36 7z"/>
<path d="M678 209 c-24 -14 -23 -46 3 -59 16 -9 25 -8 40 6 23 21 24 28 3 48
-18 19 -23 19 -46 5z m37 -25 c0 -10 -8 -20 -17 -22 -18 -3 -26 27 -11 42 12
11 28 0 28 -20z"/>
<path d="M754 204 c3 -9 6 -24 6 -35 0 -13 7 -19 23 -18 16 1 18 2 5 6 -12 3
-18 14 -18 34 0 16 -5 29 -11 29 -6 0 -8 -7 -5 -16z"/>
<path d="M790 210 c0 -5 5 -10 10 -10 6 0 10 5 10 10 0 6 -4 10 -10 10 -5 0
-10 -4 -10 -10z"/>
<path d="M828 185 c2 -19 8 -35 13 -35 5 0 9 16 9 35 0 22 -5 35 -13 35 -9 0
-12 -11 -9 -35z"/>
<path d="M930 203 c0 -16 2 -16 11 -3 8 12 9 7 6 -17 -2 -21 1 -33 8 -33 7 0
10 12 7 32 -5 30 -3 32 12 19 14 -12 16 -11 16 3 0 11 -9 16 -30 16 -22 0 -30
-5 -30 -17z"/>
<path d="M1004 204 c3 -9 6 -24 6 -35 0 -13 7 -19 23 -18 18 1 19 2 4 6 -15 4
-18 12 -15 34 3 20 0 29 -10 29 -9 0 -12 -6 -8 -16z"/>
<path d="M1040 209 c0 -5 5 -7 10 -4 6 3 10 8 10 11 0 2 -4 4 -10 4 -5 0 -10
-5 -10 -11z"/>
<path d="M1104 208 c-4 -6 0 -16 9 -23 21 -15 22 -29 2 -21 -8 3 -15 1 -15 -4
0 -13 37 -13 45 -1 3 5 -4 16 -16 25 -12 8 -18 19 -14 25 3 6 4 11 1 11 -3 0
-8 -5 -12 -12z"/>
<path d="M1160 185 c0 -19 4 -35 9 -35 5 0 11 16 13 35 3 24 0 35 -9 35 -8 0
-13 -13 -13 -35z"/>
<path d="M1235 185 c0 -19 5 -35 10 -35 6 0 10 16 10 35 0 19 -4 35 -10 35 -5
0 -10 -16 -10 -35z"/>
<path d="M1279 183 c5 -34 6 -35 9 -10 4 30 22 27 22 -4 0 -28 14 -23 27 9
l11 27 1 -27 c1 -41 16 -34 17 7 1 40 -18 47 -33 13 l-10 -23 -12 23 c-19 36
-38 28 -32 -15z"/>
<path d="M1394 186 c1 -20 4 -36 9 -36 8 0 10 15 8 43 -1 9 3 17 8 17 6 0 11
-7 11 -15 0 -8 5 -15 11 -15 23 0 3 35 -22 38 -23 3 -25 0 -25 -32z"/>
<path d="M1478 209 c-27 -15 -22 -47 7 -55 24 -6 55 9 55 27 0 9 -29 39 -38
39 -4 0 -15 -5 -24 -11z m37 -25 c0 -10 -8 -20 -17 -22 -18 -3 -26 27 -11 42
12 11 28 0 28 -20z"/>
<path d="M1558 185 c2 -19 8 -35 13 -35 5 0 6 7 3 15 -4 8 -1 15 5 15 7 0 14
-7 17 -15 4 -8 10 -15 16 -15 5 0 6 6 1 12 -4 7 -7 22 -8 33 0 14 -8 21 -26
23 -23 3 -25 1 -21 -33z m37 15 c3 -5 -1 -10 -9 -10 -9 0 -16 5 -16 10 0 6 4
10 9 10 6 0 13 -4 16 -10z"/>
<path d="M1630 203 c0 -16 2 -16 11 -3 8 12 9 7 6 -17 -2 -21 1 -33 8 -33 7 0
10 12 7 32 -5 30 -3 32 12 19 14 -12 16 -11 16 3 0 11 -9 16 -30 16 -22 0 -30
-5 -30 -17z"/>
<path d="M1710 201 c0 -11 -3 -26 -6 -35 -3 -9 -1 -16 5 -16 6 0 10 3 10 8 -1
4 0 16 1 27 1 16 3 15 12 -7 5 -16 14 -28 19 -28 5 0 4 11 -1 26 -6 14 -8 30
-4 35 3 5 -4 9 -15 9 -14 0 -21 -6 -21 -19z"/>
<path d="M1774 209 c-4 -7 4 -20 17 -31 l24 -20 -22 5 c-13 3 -23 1 -23 -4 0
-12 37 -12 44 0 3 5 -1 14 -9 21 -17 14 -21 35 -5 25 6 -3 10 -1 10 4 0 15
-27 14 -36 0z"/>
<path d="M1836 212 c-2 -4 -1 -14 5 -22 7 -12 9 -10 9 8 0 23 -5 28 -14 14z"/>
<path d="M875 150 c3 -5 8 -10 11 -10 2 0 4 5 4 10 0 6 -5 10 -11 10 -5 0 -7
-4 -4 -10z"/>
</g>
</svg>
